<?xml version="1.0" encoding="UTF-8" standalone="no"?>
<!-- Created with Inkscape (http://www.inkscape.org/) -->

<svg
   xmlns:dc="http://purl.org/dc/elements/1.1/"
   xmlns:cc="http://creativecommons.org/ns#"
   xmlns:rdf="http://www.w3.org/1999/02/22-rdf-syntax-ns#"
   xmlns:svg="http://www.w3.org/2000/svg"
   xmlns="http://www.w3.org/2000/svg"
   xmlns:sodipodi="http://sodipodi.sourceforge.net/DTD/sodipodi-0.dtd"
   xmlns:inkscape="http://www.inkscape.org/namespaces/inkscape"
   version="1.1"
   id="svg2"
   width="1366"
   height="768"
   viewBox="0 0 1366 768"
   sodipodi:docname="CatPapper.svg"
   inkscape:version="0.92.4 5da689c313, 2019-01-14"
   inkscape:export-filename="/home/kona/Diseño/ImageDesing/Summer/ArchMarchEdition.png"
   inkscape:export-xdpi="96"
   inkscape:export-ydpi="96">
  <metadata
     id="metadata8">
    <rdf:RDF>
      <cc:Work
         rdf:about="">
        <dc:format>image/svg+xml</dc:format>
        <dc:type
           rdf:resource="http://purl.org/dc/dcmitype/StillImage" />
        <dc:title></dc:title>
      </cc:Work>
    </rdf:RDF>
  </metadata>
  <defs
     id="defs6" />
  <sodipodi:namedview
     pagecolor="#ffffff"
     bordercolor="#666666"
     borderopacity="1"
     objecttolerance="10"
     gridtolerance="10"
     guidetolerance="10"
     inkscape:pageopacity="0"
     inkscape:pageshadow="2"
     inkscape:window-width="1366"
     inkscape:window-height="768"
     id="namedview4"
     showgrid="false"
     inkscape:zoom="0.37926637"
     inkscape:cx="707.39544"
     inkscape:cy="404.55294"
     inkscape:window-x="0"
     inkscape:window-y="0"
     inkscape:window-maximized="1"
     inkscape:current-layer="svg2"
     borderlayer="true"
     inkscape:showpageshadow="false"
     showguides="true"
     inkscape:guide-bbox="true" />
  <rect
     y="-85.707352"
     x="1301.6302"
     height="909.65094"
     width="195.11353"
     id="rect1033"
     style="opacity:1;fill:#000000;fill-opacity:1;fill-rule:nonzero;stroke:#000000;stroke-width:4;stroke-linecap:round;stroke-linejoin:round;stroke-miterlimit:4;stroke-dasharray:none;stroke-dashoffset:0;stroke-opacity:1" />
  <rect
     style="opacity:1;fill:#000000;fill-opacity:1;fill-rule:nonzero;stroke:#000000;stroke-width:4.80878115;stroke-linecap:round;stroke-linejoin:round;stroke-miterlimit:4;stroke-dasharray:none;stroke-dashoffset:0;stroke-opacity:1"
     id="rect1035"
     width="195.11353"
     height="1314.6943"
     x="-143.94025"
     y="-1340.2566"
     transform="rotate(90)" />
  <rect
     style="opacity:1;fill:#000000;fill-opacity:1;fill-rule:nonzero;stroke:#000000;stroke-width:4;stroke-linecap:round;stroke-linejoin:round;stroke-miterlimit:4;stroke-dasharray:none;stroke-dashoffset:0;stroke-opacity:1"
     id="rect1031"
     width="195.11353"
     height="909.65094"
     x="-133.05811"
     y="-96.667603" />
  <rect
     transform="rotate(90)"
     y="-1319.8224"
     x="716.27313"
     height="1314.6943"
     width="195.11353"
     id="rect1037"
     style="opacity:1;fill:#000000;fill-opacity:1;fill-rule:nonzero;stroke:#000000;stroke-width:4.80878115;stroke-linecap:round;stroke-linejoin:round;stroke-miterlimit:4;stroke-dasharray:none;stroke-dashoffset:0;stroke-opacity:1" />
  <rect
     style="opacity:1;fill:#ececec;fill-opacity:1;fill-rule:nonzero;stroke:#aad400;stroke-width:6;stroke-linecap:round;stroke-linejoin:round;stroke-miterlimit:4;stroke-dasharray:none;stroke-dashoffset:0;stroke-opacity:1"
     id="rect1575"
     width="1234.9163"
     height="657.87988"
     x="65.54187"
     y="55.060059" />
  <text
     xml:space="preserve"
     style="font-style:normal;font-variant:normal;font-weight:normal;font-stretch:normal;font-size:38.11938095px;line-height:1.25;font-family:KaratDemo;-inkscape-font-specification:KaratDemo;text-align:start;letter-spacing:0px;word-spacing:0px;text-anchor:start;fill:#005544;fill-opacity:1;stroke:#00ffcc;stroke-width:2;stroke-miterlimit:4;stroke-dasharray:none;"
     x="118.65528"
     y="676.03143"
     id="text1026"><tspan
       sodipodi:role="line"
       id="tspan1024"
       x="118.65528"
       y="676.03143"
       style="font-style:normal;font-variant:normal;font-weight:normal;font-stretch:normal;font-size:106.73426819px;font-family:KaratDemo;-inkscape-font-specification:KaratDemo;fill:#005544;stroke:#00ffcc;stroke-width:2;stroke-miterlimit:4;stroke-dasharray:none;">One more coffee~ </tspan></text>
  <path
     sodipodi:nodetypes="ccccccccccc"
     inkscape:connector-curvature="0"
     id="path969"
     d="m 1145.8296,466.02912 c -22.8607,-32.51657 -4.8327,-62.76955 -3.1201,-79.6489 1.5498,-16.35175 -3.6062,-15.86997 -4.9937,-34.19392 21.7039,-1.04383 23.7294,5.08935 46.4081,4.11319 13.9464,-5.36482 34.6014,-5.13985 53.8891,-3.69586 28.2841,-5.56385 27.6886,-8.44739 42.3321,-12.96618 0.3462,15.34065 -1.7001,30.54709 5.6393,43.48721 -4.2023,12.17214 9.6332,40.90371 -7.9305,83.22438 -21.9246,94.88954 33.3286,121.94277 27.2471,229.62637 4.9191,60.71305 -182.777,47.48126 -183.3683,13.45304 -8.1272,-164.0844 64.9624,-194.59533 23.8969,-243.39933 z"
     style="fill:#ffffff;stroke:#04b4ae;stroke-width:7.40825844;stroke-linecap:round;stroke-linejoin:round;stroke-miterlimit:4;stroke-dasharray:none;stroke-opacity:1" />
  <ellipse
     transform="rotate(9.7290916)"
     ry="4.604002"
     rx="2.302001"
     cy="198.05801"
     cx="1214.6918"
     id="ellipse971"
     style="opacity:1;fill:#000000;fill-opacity:1;fill-rule:nonzero;stroke:#000000;stroke-width:8.14908314;stroke-linecap:round;stroke-linejoin:round;stroke-miterlimit:4;stroke-dasharray:none;stroke-dashoffset:0;stroke-opacity:1" />
  <ellipse
     transform="rotate(14.373986)"
     style="opacity:1;fill:#000000;fill-opacity:1;fill-rule:nonzero;stroke:#000000;stroke-width:8.14908409;stroke-linecap:round;stroke-linejoin:round;stroke-miterlimit:4;stroke-dasharray:none;stroke-dashoffset:0;stroke-opacity:1"
     id="ellipse973"
     cx="1278.3109"
     cy="90.67205"
     rx="2.302001"
     ry="4.604002" />
  <ellipse
     transform="rotate(94.858223)"
     ry="2.6958449"
     rx="1.3479224"
     cy="-1212.4518"
     cx="327.11838"
     id="ellipse975"
     style="opacity:1;fill:#ff6600;fill-opacity:1;fill-rule:nonzero;stroke:#ff0000;stroke-width:4.77164507;stroke-linecap:round;stroke-linejoin:round;stroke-miterlimit:4;stroke-dasharray:none;stroke-dashoffset:0;stroke-opacity:1" />
  <path
     inkscape:connector-curvature="0"
     id="path977"
     d="m 1220.5459,432.9957 52.3705,-5.17948"
     style="fill:none;stroke:#000000;stroke-width:1.23470974px;stroke-linecap:butt;stroke-linejoin:miter;stroke-opacity:1" />
  <path
     inkscape:connector-curvature="0"
     id="path979"
     d="m 1220.5459,443.35479 45.4645,13.23646"
     style="fill:none;stroke:#000000;stroke-width:1.23470974px;stroke-linecap:butt;stroke-linejoin:miter;stroke-opacity:1" />
  <path
     sodipodi:nodetypes="cc"
     inkscape:connector-curvature="0"
     id="path981"
     d="m 1221.258,438.36977 38.4219,0.38104"
     style="fill:none;stroke:#000000;stroke-width:1.23470974px;stroke-linecap:butt;stroke-linejoin:miter;stroke-opacity:1" />
  <path
     inkscape:connector-curvature="0"
     id="path983"
     d="m 1146.3064,427.81622 -42.2993,-15.25077"
     style="fill:none;stroke:#000000;stroke-width:1.23470974px;stroke-linecap:butt;stroke-linejoin:miter;stroke-opacity:1" />
  <path
     sodipodi:nodetypes="cc"
     inkscape:connector-curvature="0"
     id="path985"
     d="m 1142.5656,434.1467 -22.7323,-3.16518"
     style="fill:none;stroke:#000000;stroke-width:1.23470974px;stroke-linecap:butt;stroke-linejoin:miter;stroke-opacity:1" />
  <path
     inkscape:connector-curvature="0"
     id="path987"
     d="m 1142.8534,442.2038 -34.8178,0.86318"
     style="fill:none;stroke:#000000;stroke-width:1.23470974px;stroke-linecap:butt;stroke-linejoin:miter;stroke-opacity:1" />
  <path
     sodipodi:nodetypes="csc"
     inkscape:connector-curvature="0"
     id="path989"
     d="m 1305.8017,693.88221 c 62.9297,-83.37798 -29.9629,-184.01642 -13.2935,-211.97573 13.8348,-23.2047 45.6578,-3.19861 28.8469,21.64608"
     style="fill:none;stroke:#04b4ae;stroke-width:7.40825844;stroke-linecap:round;stroke-linejoin:round;stroke-miterlimit:4;stroke-dasharray:none;stroke-opacity:1" />
  <path
     inkscape:transform-center-y="-0.25624259"
     inkscape:transform-center-x="0.8252828"
     d="m 1162.5588,650.74657 -8.503,-0.47169 -7.3224,4.34814 -2.179,-8.23261 -6.398,-5.62037 7.1563,-4.61635 3.3682,-7.82171 6.6018,5.37955 8.4797,0.78629 -3.0761,7.94109 z"
     inkscape:randomized="0"
     inkscape:rounded="0"
     inkscape:flatsided="false"
     sodipodi:arg2="1.3305755"
     sodipodi:arg1="0.70225693"
     sodipodi:r2="8.7317257"
     sodipodi:r1="13.859882"
     sodipodi:cy="641.79388"
     sodipodi:cx="1151.9784"
     sodipodi:sides="5"
     id="path991"
     style="opacity:1;fill:#04b4ae;fill-opacity:1;fill-rule:nonzero;stroke:#04b4ae;stroke-width:7.40825844;stroke-linecap:round;stroke-linejoin:round;stroke-miterlimit:4;stroke-dasharray:none;stroke-dashoffset:0;stroke-opacity:1"
     sodipodi:type="star" />
  <path
     inkscape:transform-center-y="0.46609798"
     inkscape:transform-center-x="-0.75061808"
     d="m 1235.8081,556.33643 9.5048,0.96842 8.4311,-4.49416 2.0161,9.3389 6.8795,6.62962 -8.2588,4.80334 -4.1792,8.59149 -7.1204,-6.37027 -9.4624,-1.31979 3.8581,-8.74039 z"
     inkscape:randomized="0"
     inkscape:rounded="0"
     inkscape:flatsided="false"
     sodipodi:arg2="-1.7648961"
     sodipodi:arg1="-2.3932146"
     sodipodi:r2="9.7959709"
     sodipodi:r1="15.549161"
     sodipodi:cy="566.91687"
     sodipodi:cx="1247.2024"
     sodipodi:sides="5"
     id="path993"
     style="opacity:1;fill:#04b4ae;fill-opacity:1;fill-rule:nonzero;stroke:#04b4ae;stroke-width:7.40825844;stroke-linecap:round;stroke-linejoin:round;stroke-miterlimit:4;stroke-dasharray:none;stroke-dashoffset:0;stroke-opacity:1"
     sodipodi:type="star" />
  <path
     inkscape:transform-center-y="-1.7110916"
     inkscape:transform-center-x="0.85753124"
     d="m 1258.9606,716.43264 -19.8162,-3.83447 -18.5894,7.8624 -2.4767,-20.03121 -13.222,-15.24997 18.2854,-8.54549 10.4178,-17.2874 13.7777,14.74981 19.6606,4.56576 -9.7703,17.66138 z"
     inkscape:randomized="0"
     inkscape:rounded="0"
     inkscape:flatsided="false"
     sodipodi:arg2="1.4662998"
     sodipodi:arg1="0.83798123"
     sodipodi:r2="20.694818"
     sodipodi:r1="32.848919"
     sodipodi:cy="692.01624"
     sodipodi:cx="1236.9858"
     sodipodi:sides="5"
     id="path995"
     style="opacity:1;fill:#04b4ae;fill-opacity:1;fill-rule:nonzero;stroke:#04b4ae;stroke-width:7.40825844;stroke-linecap:round;stroke-linejoin:round;stroke-miterlimit:4;stroke-dasharray:none;stroke-dashoffset:0;stroke-opacity:1"
     sodipodi:type="star" />
  <path
     inkscape:transform-center-y="0.20350398"
     inkscape:transform-center-x="0.22399415"
     d="m 1186.9751,500.17873 3.0055,1.49022 3.3259,-0.43809 -0.4885,3.31889 1.4444,3.02776 -3.3074,0.56097 -2.4332,2.30935 -1.5556,-2.97219 -2.9482,-1.60051 2.346,-2.39788 z"
     inkscape:randomized="0"
     inkscape:rounded="0"
     inkscape:flatsided="false"
     sodipodi:arg2="-1.4061254"
     sodipodi:arg1="-2.0344439"
     sodipodi:r2="3.4395955"
     sodipodi:r1="5.4596748"
     sodipodi:cy="505.06201"
     sodipodi:cx="1189.4167"
     sodipodi:sides="5"
     id="path997"
     style="opacity:1;fill:#008080;fill-opacity:1;fill-rule:nonzero;stroke:#04b4ae;stroke-width:7.40825844;stroke-linecap:round;stroke-linejoin:round;stroke-miterlimit:4;stroke-dasharray:none;stroke-dashoffset:0;stroke-opacity:1"
     sodipodi:type="star" />
  <path
     d="m 1296.7589,311.66893 c -7.1363,5.14997 -11.6606,8.60839 -18.9878,13.3524 0.6502,3.24148 1.5276,7.09254 3.6871,12.17139 -3.0634,-4.27333 -4.8122,-7.73447 -5.8097,-10.81507 -9.2524,5.87117 -23.0036,13.8774 -50.1067,28.84295 13.6559,0.47684 23.6679,1.76514 31.7699,4.93229 0.5236,-1.53499 1.2545,-3.09184 2.2106,-4.59559 l 0.1833,-0.333 c 4.1759,-6.33097 10.6105,-9.1855 14.3633,-6.37431 3.7513,2.81304 3.4037,10.22339 -0.7733,16.5535 -0.8165,1.17174 -1.6464,2.27236 -2.5442,3.21556 6.2966,5.88166 11.7655,14.25522 18.095,26.15621 0.2937,-4.81339 0.5748,-9.14154 0.8391,-13.26695 -1.3522,-3.66894 -2.434,-8.02092 -6.2222,-14.36758 3.2116,3.39014 5.2369,6.25467 6.5734,8.87559 2.7622,-42.06891 4.0072,-47.11084 6.7121,-64.35036 z"
     id="path999"
     style="fill:#04b4ae;fill-opacity:1;fill-rule:evenodd;stroke:#04b4ae;stroke-width:0.62514347;stroke-miterlimit:4;stroke-dasharray:none"
     inkscape:connector-curvature="0" />
  <path
     inkscape:connector-curvature="0"
     style="fill:#04b4ae;fill-opacity:1;fill-rule:evenodd;stroke:#04b4ae;stroke-width:0.67169696;stroke-miterlimit:4;stroke-dasharray:none"
     id="path1003"
     d="m 1114.5943,324.96873 c 8.602,3.92662 14.0962,6.62002 22.814,10.07869 0,3.55225 -0.1189,7.79459 -1.3268,13.60008 2.3297,-5.14677 3.4449,-9.16143 3.8485,-12.61713 10.9833,4.24197 27.1559,9.78779 58.8603,19.8608 -14.2892,3.37261 -24.5681,6.83449 -32.4397,11.87457 -0.8743,-1.50746 -1.9717,-2.99417 -3.2952,-4.37779 l -0.2631,-0.31238 c -5.7309,-5.7935 -13.1111,-7.44863 -16.4745,-3.69783 -3.3615,3.75265 -1.4377,11.48786 4.294,17.28013 1.1067,1.06296 2.2125,2.04839 3.3567,2.85342 -5.3986,7.52111 -9.4012,17.49386 -13.5693,31.36459 -1.3212,-5.01046 -2.527,-9.51184 -3.6726,-13.80332 0.6537,-4.15023 0.8789,-8.96325 3.5366,-16.44707 -2.6716,4.24728 -4.2036,7.69125 -5.0609,10.73382 -11.7529,-43.74786 -14.1244,-48.79893 -20.598,-66.39577 z" />
  <path
     style="fill:#ff4b77;fill-opacity:1;stroke:#2aff80;stroke-width:4;stroke-miterlimit:4;stroke-dasharray:none"
     d="m 1109.3979,538.78214 c -18.4893,0.96584 -32.3063,-4.2328 -37.8887,-14.25557 -3.2824,-5.88979 -3.025,-12.07119 0.7183,-17.35372 4.6598,-6.57599 13.3602,-8.77942 20.3746,-5.15997 l 1.8915,0.97605 0.1571,-1.85995 c 0.5229,-6.19247 4.5207,-11.64423 10.1034,-13.77787 5.736,-2.19225 12.1397,-1.0787 16.7552,2.91361 2.0118,1.74018 4.7022,6.4119 5.4483,9.46098 1.9652,8.03066 -0.4053,18.43172 -6.6518,29.18662 -2.1982,3.78474 -5.8206,8.99026 -6.5319,9.38672 -0.2772,0.15447 -2.2464,0.37185 -4.376,0.4831 z"
     id="path5364"
     inkscape:connector-curvature="0" />
  <path
     style="fill:none;fill-opacity:1;stroke:#aad400;stroke-width:6;stroke-linecap:butt;stroke-linejoin:miter;stroke-miterlimit:4;stroke-dasharray:none;stroke-opacity:1"
     d="m 1300.4666,482.72162 -0.01,-18.52754"
     id="path1029"
     inkscape:connector-curvature="0"
     sodipodi:nodetypes="cc" />
  <text
     xml:space="preserve"
     style="font-style:normal;font-weight:normal;font-size:40px;line-height:1.25;font-family:sans-serif;letter-spacing:0px;word-spacing:0px;fill:#000000;fill-opacity:1;stroke:none"
     x="441.70288"
     y="395.03516"
     id="text978"><tspan
       sodipodi:role="line"
       id="tspan976"
       x="441.70288"
       y="395.03516">Pick a photo in the web!</tspan></text>
</svg>
